<svg id="Layer_1" viewBox="0 0 512 512" xmlns="http://www.w3.org/2000/svg" data-name="Layer 1" width="300" height="300" version="1.1" xmlns:xlink="http://www.w3.org/1999/xlink" xmlns:svgjs="http://svgjs.dev/svgjs"><g width="100%" height="100%" transform="matrix(1,0,0,1,0,0)"><path d="m389.71 252.74h-40.975v-12.94a27.5 27.5 0 0 0 -27.6-27.34h-16.876v-4.493a28.761 28.761 0 0 0 -28.728-28.729h-15.605v-84.586h50.528a6 6 0 0 0 0-11.991h-56.523a6 6 0 0 0 -6 6v90.582h-11.5a28.762 28.762 0 0 0 -28.729 28.729v4.493h-16.842a27.514 27.514 0 0 0 -27.623 27.34v12.94h-37.05v-84.265a5.995 5.995 0 0 0 -11.99 0v90.256a5.994 5.994 0 0 0 5.995 6h43.045v57.047a27.371 27.371 0 0 0 27.34 27.34h57.359v73.7h-49.9a6 6 0 1 0 0 11.99h55.9a5.994 5.994 0 0 0 5.995-6v-79.7h61.5a27.357 27.357 0 0 0 27.312-27.34v-57.042h34.98v80.6a6 6 0 0 0 11.991 0v-86.6a6 6 0 0 0 -6.004-5.991zm-170.01-44.773a16.758 16.758 0 0 1 16.738-16.739h39.09a16.758 16.758 0 0 1 16.738 16.739v4.493h-72.566zm117.045 113.811a15.353 15.353 0 0 1 -15.322 15.35h-130.846a15.367 15.367 0 0 1 -15.35-15.35v-81.978a15.329 15.329 0 0 1 15.633-15.35h130.28a15.315 15.315 0 0 1 15.605 15.35z" fill="#127833" fill-opacity="1" data-original-color="#549bffff" stroke="none" stroke-opacity="1"/><g fill="#112d55"><path d="m203.4 88.656a83.2 83.2 0 1 0 -134.481 65.429 6.03 6.03 0 0 0 1.177.926 83 83 0 0 0 100.291-.065 6.088 6.088 0 0 0 1.155-.907 83.051 83.051 0 0 0 31.858-65.383zm-154.4 0a71.207 71.207 0 1 1 124.163 47.528 53.147 53.147 0 0 0 -32.788-45.821 31.847 31.847 0 1 0 -40.305 0 53.146 53.146 0 0 0 -32.77 45.89 70.906 70.906 0 0 1 -18.3-47.597zm71.22-3.075a19.871 19.871 0 1 1 19.858-19.857 19.878 19.878 0 0 1 -19.858 19.857zm-41.031 61.219v-7.376a41.046 41.046 0 1 1 82.092 0v7.327a70.976 70.976 0 0 1 -82.092.049z" fill="#949005" fill-opacity="1" data-original-color="#112d55ff" stroke="none" stroke-opacity="1"/><path d="m474.991 85.283a85.267 85.267 0 1 0 -137.785 67.092 5.99 5.99 0 0 0 1.132.889 85.06 85.06 0 0 0 102.851-.07 5.988 5.988 0 0 0 1.1-.861 85.118 85.118 0 0 0 32.702-67.05zm-158.542 0a73.276 73.276 0 1 1 127.506 49.217 54.391 54.391 0 0 0 -33.831-47.4 32.548 32.548 0 1 0 -40.729 0 54.394 54.394 0 0 0 -33.85 47.466 72.98 72.98 0 0 1 -19.096-49.283zm73.318-2.99a20.551 20.551 0 1 1 20.533-20.565 20.588 20.588 0 0 1 -20.533 20.565zm-42.308 62.785v-7.665a42.293 42.293 0 1 1 84.586 0v7.617a73.038 73.038 0 0 1 -84.586.048z" fill="#949005" fill-opacity="1" data-original-color="#112d55ff" stroke="none" stroke-opacity="1"/><path d="m203.4 428.814a83.2 83.2 0 1 0 -134.481 65.429 6.068 6.068 0 0 0 1.177.926 83 83 0 0 0 100.294-.069 6 6 0 0 0 1.15-.9 83.05 83.05 0 0 0 31.86-65.386zm-154.4 0a71.207 71.207 0 1 1 124.163 47.528 53.146 53.146 0 0 0 -32.789-45.822 31.846 31.846 0 1 0 -40.3 0 53.145 53.145 0 0 0 -32.774 45.89 70.9 70.9 0 0 1 -18.3-47.596zm71.22-3.075a19.857 19.857 0 1 1 19.858-19.857 19.879 19.879 0 0 1 -19.858 19.857zm-41.031 61.22v-7.376a41.046 41.046 0 1 1 82.092 0v7.326a70.974 70.974 0 0 1 -82.092.05z" fill="#949005" fill-opacity="1" data-original-color="#112d55ff" stroke="none" stroke-opacity="1"/><path d="m474.991 425.441a85.267 85.267 0 1 0 -137.785 67.091 6.036 6.036 0 0 0 1.132.89 85.059 85.059 0 0 0 102.852-.071 5.972 5.972 0 0 0 1.1-.861 85.116 85.116 0 0 0 32.701-67.049zm-158.542 0a73.276 73.276 0 1 1 127.506 49.214 54.391 54.391 0 0 0 -33.832-47.4 32.547 32.547 0 1 0 -40.727 0 54.392 54.392 0 0 0 -33.851 47.465 72.979 72.979 0 0 1 -19.096-49.279zm73.318-2.991a20.551 20.551 0 1 1 20.533-20.565 20.588 20.588 0 0 1 -20.533 20.565zm-42.308 62.786v-7.666a42.293 42.293 0 1 1 84.586 0v7.617a73.04 73.04 0 0 1 -84.586.049z" fill="#949005" fill-opacity="1" data-original-color="#112d55ff" stroke="none" stroke-opacity="1"/></g><path d="m256 232.019a48.77 48.77 0 1 0 48.742 48.77 48.825 48.825 0 0 0 -48.742-48.77zm0 85.55a36.78 36.78 0 1 1 36.751-36.78 36.822 36.822 0 0 1 -36.751 36.78zm20.537-47.669c0 13.3-6.2 16.523-12.013 18.5-2.989 1.019-3.233 1.1-3.55 4.261a6 6 0 0 1 -5.959 5.4 5.875 5.875 0 0 1 -.6-.031 6 6 0 0 1 -5.369-6.563c1.085-10.827 7.935-13.161 11.615-14.415 3.065-1.045 3.889-1.325 3.889-7.154a9.663 9.663 0 0 0 -9.652-9.652 9.548 9.548 0 0 0 -8.286 4.672 6 6 0 1 1 -10.3-6.14 21.654 21.654 0 0 1 40.228 11.12z" fill="#127833" fill-opacity="1" data-original-color="#549bffff" stroke="none" stroke-opacity="1"/><path d="m255.405 313.316a5.994 5.994 0 0 1 -6-5.995v-1.19a6 6 0 1 1 11.99 0v1.19a6 6 0 0 1 -5.99 5.995z" fill="#127833" fill-opacity="1" data-original-color="#549bffff" stroke="none" stroke-opacity="1"/></g></svg>